<svg width="37" height="37" viewBox="0 0 37 37" xmlns="http://www.w3.org/2000/svg">
    <defs>
        <linearGradient x1="100%" y1="50%" x2="0%" y2="50%" id="pyip0beyea">
            <stop stop-color="#BF3C90" offset="0%"/>
            <stop stop-color="#180F47" offset="100%"/>
        </linearGradient>
    </defs>
    <g fill="none" fill-rule="evenodd">
        <path d="M2 16.975C2 8.703 9.386 2 18.499 2 27.61 2 35 8.703 35 16.975c0 8.273-7.39 14.975-16.501 14.975-.892 0-2.625-.19-2.625-.19s-2.364 3.835-7.085 3.16c0 0 1.887-2.139 2.168-4.628C5.638 27.806 2 22.776 2 16.975" stroke="url(#pyip0beyea)" stroke-width="3" fill="#FFF"/>
        <g fill="#582063">
            <path d="M29 17.5c0 1.382-1.065 2.5-2.38 2.5-1.316 0-2.382-1.118-2.382-2.5 0-1.38 1.066-2.5 2.382-2.5 1.315 0 2.38 1.12 2.38 2.5M21.381 17.5c0 1.382-1.065 2.5-2.38 2.5-1.316 0-2.382-1.118-2.382-2.5 0-1.38 1.066-2.5 2.382-2.5 1.315 0 2.38 1.12 2.38 2.5M13.762 17.5c0 1.382-1.065 2.5-2.38 2.5C10.066 20 9 18.882 9 17.5c0-1.38 1.066-2.5 2.382-2.5 1.315 0 2.38 1.12 2.38 2.5"/>
        </g>
    </g>
</svg>
