<svg width="160" height="154" viewBox="0 0 160 154" xmlns="http://www.w3.org/2000/svg" xmlns:xlink="http://www.w3.org/1999/xlink">
    <defs>
        <linearGradient x1="50%" y1="0%" x2="50%" y2="100%" id="h8uvoldyxa">
            <stop stop-color="#ECBCD6" offset="0%"/>
            <stop stop-color="#C8529A" offset="100%"/>
        </linearGradient>
        <path id="01n8cs7ayb" d="M0 0h159.342v111.41H0z"/>
    </defs>
    <g fill="none" fill-rule="evenodd">
        <path d="M53.716 153.2c-6.577 0-11.906-6.863-11.906-13.46l6.76-35.126c0-6.595 11.112-11.942 17.685-11.942h30.406c6.573 0 18.302 5.347 18.302 11.942l7.2 35.127c0 6.596-5.329 13.459-11.902 13.459H53.716z" fill="url(#h8uvoldyxa)"/>
        <g>
            <path d="m110.262 152.992-4.285.198c-2.726.08-6.624.283-11.298.371-4.676.083-10.13.277-15.973.308l-18.31.131-4.668-.036c-.794-.017-1.513.014-2.361-.04a10.706 10.706 0 0 1-2.505-.478c-3.22-1.04-5.697-3.4-7.298-6.03-.77-1.275-1.47-2.738-1.745-4.23-.312-1.5-.244-3.017.004-4.393.234-1.382.663-2.672 1.02-3.86.362-1.21.713-2.38 1.047-3.504 1.342-4.495 2.552-8.213 3.356-10.828l1.324-4.093-.96 4.194c-.646 2.66-1.51 6.475-2.656 11.022-.284 1.138-.584 2.32-.895 3.546-.318 1.245-.658 2.462-.818 3.743-.42 2.563.274 5.121 1.8 7.487 1.454 2.32 3.696 4.341 6.375 5.154.681.208 1.336.311 2.027.36.695.04 1.525 0 2.285.006l4.667-.037 18.31.132c5.845.03 11.298.224 15.974.307 4.674.089 8.572.29 11.298.372 2.727.125 4.285.198 4.285.198" fill="#EBCEE4"/>
            <path d="M159.614 98.725c0 9.437-7.625 17.086-17.037 17.086H17.351c-9.408 0-17.038-7.649-17.038-17.086V17.568C.313 8.13 7.943.479 17.351.479h125.226c9.412 0 17.037 7.651 17.037 17.089v81.157z" fill-opacity=".2" fill="#F4E6F2"/>
            <path d="m158.993 88.08.193 7.499c.018 2.34.312 5.382-.868 8.613-1.028 3.225-3.345 6.574-6.868 8.904a17.354 17.354 0 0 1-6.05 2.514c-1.12.226-2.28.333-3.453.37-1.134.014-2.288.028-3.457.044-4.671.047-9.599.093-14.698.146-10.193.04-21.07.087-31.943.131l-31.944-.117c-10.196-.004-19.713-.208-27.87-.285-4.077-.063-7.814-.117-11.128-.168-1.664-.058-3.193-.012-4.656-.15-1.444-.102-2.784-.43-3.922-.79-2.288-.775-3.906-1.8-4.901-2.602-1.01-.789-1.495-1.27-1.495-1.27s.518.447 1.571 1.16c1.04.722 2.704 1.62 4.96 2.27 2.26.721 5.115.6 8.443.517l11.128-.17c8.157-.074 17.674-.28 27.87-.282 10.193-.039 21.068-.08 31.944-.118l31.943.132 14.698.145c2.36-.004 4.612.192 6.669-.22a16.203 16.203 0 0 0 5.689-2.2c3.332-2.117 5.67-5.162 6.777-8.212 1.26-3.035 1.102-5.977 1.174-8.362l.194-7.5" fill="#FFF"/>
            <path d="M158.729 14.542s.042.285.125.818c.074.542.227 1.296.334 2.33.083 2.011.278 4.885.369 8.333.088 3.447.256 7.469.32 11.78.085 4.308.1 8.905.123 13.5-.022 4.598-.036 9.196-.12 13.504-.06 4.311-.233 8.333-.321 11.78-.089 3.448-.288 6.322-.369 8.332-.127 2.011-.197 3.161-.197 3.161s-.07-1.15-.198-3.16c-.08-2.011-.28-4.885-.368-8.333-.089-3.447-.262-7.469-.323-11.78-.084-4.308-.096-8.906-.119-13.503.023-4.596.037-9.193.121-13.502.067-4.31.234-8.332.323-11.78.088-3.447.286-6.32.368-8.332-.042-2.004-.068-3.148-.068-3.148" fill="#FFF"/>
            <mask id="de19fm9juc" fill="#fff">
                <use xlink:href="#01n8cs7ayb"/>
            </mask>
            <path d="M6.528 111.41s-.192-.183-.558-.538c-.385-.34-.91-.881-1.535-1.66-1.217-1.537-2.901-4.08-3.496-7.808-.33-1.86-.268-3.929-.316-6.148-.032-2.229-.068-4.638-.107-7.214L.323 70.737l-.19-20.476C.102 42.994.066 35.333.032 27.407c-.008-1.98-.012-3.979-.018-5.992.018-2-.12-4.027.217-6.192C.875 10.925 3.14 6.905 6.536 4.1 9.888 1.263 14.463-.17 18.794.014l12.628.032C48.277.086 65.133.13 80.935.17l43.192.317c6.322.069 12.116.133 17.253.192 2.568-.037 5.05.305 7.16 1.123 2.117.79 3.872 1.955 5.272 3.181 2.806 2.496 4.101 5.245 4.78 7.086.298.947.512 1.675.593 2.184l.157.76s-.06-.257-.18-.756c-.098-.503-.334-1.224-.662-2.154a17.292 17.292 0 0 0-4.922-6.847c-2.764-2.393-7.071-4.222-12.198-3.9-5.137.058-10.931.123-17.253.192-12.641.095-27.392.202-43.192.317-15.802.04-32.658.083-49.513.123-4.215.01-8.43.023-12.628.033-4.053-.124-7.967 1.07-11.02 3.595-3.041 2.467-5.092 6.099-5.68 9.86-.32 1.87-.212 3.924-.24 5.94l-.018 5.991c-.036 7.926-.07 15.587-.105 22.854-.066 7.265-.129 14.134-.19 20.476l-.19 17.305c-.04 2.576-.075 4.985-.11 7.214-.022 2.233-.14 4.283.123 6.083.482 3.646 2.023 6.223 3.167 7.795.585.796 1.09 1.362 1.459 1.716.354.37.538.56.538.56" fill="#EBCEE4" mask="url(#de19fm9juc)"/>
        </g>
        <path d="M61.904 80.645c0 4.404-3.557 7.97-7.943 7.97-4.388 0-7.947-3.566-7.947-7.97V52.751c0-4.4 3.56-7.969 7.947-7.969 4.386 0 7.943 3.57 7.943 7.969v27.894zM115.249 80.645c0 4.404-3.56 7.97-7.946 7.97-4.387 0-7.945-3.566-7.945-7.97v-39.85c0-4.4 3.558-7.966 7.945-7.966 4.386 0 7.946 3.567 7.946 7.966v39.85zM88.58 80.645c0 4.404-3.56 7.97-7.946 7.97-4.39 0-7.947-3.566-7.947-7.97V61.29c0-4.401 3.557-7.968 7.947-7.968 4.386 0 7.945 3.567 7.945 7.968v19.356z" fill="#FFF"/>
        <g stroke="#EBCEE4" stroke-width="1.5">
            <path d="M61.828 81.46c0 4.404-3.555 7.97-7.943 7.97-4.386 0-7.943-3.566-7.943-7.97V53.569c0-4.401 3.557-7.97 7.943-7.97 4.388 0 7.943 3.569 7.943 7.97v27.893zM115.173 81.46c0 4.404-3.558 7.97-7.944 7.97-4.39 0-7.947-3.566-7.947-7.97V41.614c0-4.402 3.558-7.969 7.947-7.969 4.386 0 7.944 3.567 7.944 7.969V81.46zM88.504 81.46c0 4.404-3.56 7.97-7.946 7.97-4.388 0-7.947-3.566-7.947-7.97V62.105c0-4.399 3.56-7.966 7.947-7.966 4.386 0 7.946 3.567 7.946 7.966v19.357z"/>
        </g>
    </g>
</svg>
