<svg width="160" height="138" viewBox="0 0 160 138" xmlns="http://www.w3.org/2000/svg">
    <defs>
        <linearGradient x1="50%" y1="0%" x2="50%" y2="100%" id="nliaxrwqra">
            <stop stop-color="#ECBCD6" offset="0%"/>
            <stop stop-color="#C8529A" offset="100%"/>
        </linearGradient>
    </defs>
    <g fill="none" fill-rule="evenodd">
        <path d="M127.677 27.277c0 14.622-11.942 26.479-26.666 26.479-14.73 0-26.668-11.857-26.668-26.479 0-14.62 11.938-26.475 26.668-26.475 14.724 0 26.666 11.855 26.666 26.475M160 118.592c0 20.707-19.112 18.54-42.686 18.54H84.702c-23.576 0-42.682 2.167-42.682-18.54 0-33.672 29.461-59.03 62.709-58.406C135.902 60.765 160 87.25 160 118.592" fill="url(#nliaxrwqra)"/>
        <path d="M85.843 27.338c0 14.656-12.021 26.54-26.85 26.54-14.836 0-26.863-11.884-26.863-26.54C32.13 12.685 44.157.802 58.992.802c14.83 0 26.851 11.883 26.851 26.536m32.137 90.483c0 20.672-19.113 18.51-42.688 18.51H42.68C19.107 136.33 0 138.493 0 117.82c0-33.616 29.46-58.93 62.71-58.308 31.17.578 55.27 27.02 55.27 58.308" fill-opacity=".2" fill="#F4E6F2"/>
        <path d="m79.289 9.737.583.643c.368.433.977 1.002 1.576 1.887.668.837 1.342 1.94 2.098 3.227.329.67.675 1.385 1.045 2.136.295.784.607 1.611.892 2.487.493 1.773.957 3.735 1.078 5.857.029.544.096 1.036.096 1.642-.015.533-.027 1.072-.04 1.614.033 1.07-.231 2.248-.368 3.41-.47 2.282-1.092 4.633-2.22 6.82-1.035 2.223-2.442 4.312-4.09 6.182-1.616 1.906-3.6 3.463-5.624 4.837-2.06 1.337-4.288 2.323-6.505 3.04-1.114.34-2.233.607-3.331.814-1.118.108-2.192.359-3.263.334-.53.012-1.054.027-1.57.04l-.385.008c-.22-.005-.274-.023-.42-.034l-.735-.074-2.815-.288c-.903-.164-1.773-.425-2.59-.634-.811-.242-1.606-.386-2.27-.74-1.349-.64-2.586-1.057-3.48-1.642l-2.794-1.818 2.955 1.506c.923.5 2.181.809 3.537 1.32.672.29 1.448.36 2.234.525.796.133 1.605.362 2.486.472.906.045 1.848.094 2.825.142l.739.038c.103.004.296.02.325.011l.368-.029c.493-.038.99-.075 1.495-.115 1.016-.024 2.03-.32 3.074-.472 1.026-.263 2.082-.514 3.118-.87 2.08-.721 4.119-1.737 6.047-2.99 1.885-1.306 3.73-2.776 5.225-4.572 1.556-1.735 2.892-3.677 3.881-5.753 1.062-2.04 1.737-4.223 2.225-6.35.153-1.079.415-2.079.453-3.192l.124-1.609c.02-.458-.012-1.012-.016-1.506-.01-2.027-.36-3.923-.744-5.654-.225-.858-.507-1.663-.725-2.447l-.838-2.153c-.628-1.308-1.199-2.446-1.78-3.317-.522-.908-1.046-1.565-1.369-2.028l-.507-.705" fill="#FFF"/>
        <path d="M44.157 49.484s-.29-.204-.836-.584c-.522-.412-1.401-.865-2.307-1.724-.464-.423-.975-.892-1.535-1.402-.57-.503-1.047-1.17-1.636-1.816-.28-.335-.592-.667-.872-1.036l-.801-1.19c-.569-.808-1.116-1.687-1.555-2.68-.24-.485-.484-.982-.731-1.488-.238-.51-.388-1.067-.592-1.616l-.587-1.687c-.128-.59-.26-1.19-.394-1.798-.113-.613-.294-1.225-.359-1.861-.054-.638-.108-1.283-.166-1.937l-.08-.987-.02-.249.008-.281.02-.488.087-1.971a29.77 29.77 0 0 1 2.056-8.184c1.125-2.65 2.717-5.14 4.63-7.354a26.139 26.139 0 0 1 6.746-5.481c2.499-1.41 5.144-2.517 7.836-3.052C55.74.06 58.413-.16 60.89.122c2.436.14 4.825.773 6.852 1.429 1.015.382 1.964.805 2.865 1.196.856.489 1.665.952 2.427 1.386 1.437 1.003 2.665 1.897 3.562 2.773.97.79 1.558 1.589 2.015 2.07l.677.76s-.262-.24-.748-.692c-.496-.441-1.166-1.15-2.172-1.87-.942-.8-2.215-1.589-3.677-2.465l-2.447-1.174c-.902-.316-1.827-.701-2.818-1.02-2.042-.55-4.165-1.04-6.608-1.081-2.387-.168-4.885.18-7.402.708-2.53.537-5.003 1.621-7.33 2.976a24.553 24.553 0 0 0-6.25 5.224c-1.815 2.044-3.344 4.354-4.436 6.826-1.066 2.481-1.723 5.094-2.039 7.6l-.113 1.97-.03.486c-.001.065-.012.201-.008.203l.01.236.04.934.074 1.845c.034.607.183 1.192.266 1.78l.297 1.731.492 1.634c.171.532.29 1.074.498 1.573l.64 1.46c.22.472.394.954.634 1.392.253.43.5.85.74 1.261.237.415.468.82.694 1.211.247.379.525.72.776 1.065.964 1.418 2.01 2.472 2.866 3.358.84.905 1.66 1.463 2.14 1.916l.779.66M7.694 133.507l-1.262-.786c-.805-.53-1.948-1.438-3.1-2.868-1.08-1.48-2.125-3.492-2.724-5.993-.551-2.477-.739-5.448-.517-8.518-.003-3.083.573-6.485 1.232-10.02.464-1.733.897-3.533 1.424-5.343l2.09-5.395L7.59 89.27c1.116-1.686 2.203-3.425 3.376-5.12 1.315-1.591 2.559-3.269 3.96-4.816 1.49-1.463 2.87-3.06 4.466-4.42 3.176-2.744 6.583-5.225 10.172-7.26a62.484 62.484 0 0 1 11.013-5.008c3.703-1.33 7.435-2.11 10.98-2.679l5.202-.58 4.888-.074c1.567-.088 3.083.153 4.477.24 1.41.077 2.75.313 4.005.556 2.525.37 4.638 1.038 6.39 1.514 1.756.474 3.048 1.113 3.966 1.421.906.35 1.39.534 1.39.534l-1.423-.442c-.937-.256-2.264-.78-4.028-1.175-1.762-.389-3.889-.947-6.382-1.187-1.233-.178-2.548-.346-3.974-.357-1.432-.02-2.881-.23-4.42-.09l-4.797.215-5.086.722c-3.455.663-7.062 1.553-10.67 2.858a60.7 60.7 0 0 0-10.68 4.983c-3.478 2.016-6.76 4.465-9.824 7.153-1.565 1.306-2.916 2.845-4.38 4.249-1.376 1.491-2.598 3.11-3.89 4.64-1.158 1.637-2.23 3.316-3.333 4.945l-2.728 5.142-2.116 5.218c-.566 1.75-1.039 3.49-1.544 5.17-.737 3.415-1.405 6.649-1.495 9.775-.294 3.111-.247 5.85.157 8.327.462 2.444 1.374 4.43 2.354 5.923 1.064 1.437 2.09 2.412 2.87 2.994.79.564 1.209.867 1.209.867" fill="#EBCEE4"/>
        <path d="m81.874 63.578 1.984.828c.64.285 1.459.573 2.369 1.03.906.468 1.946 1.006 3.114 1.612 1.141.648 2.352 1.45 3.703 2.28 1.287.918 2.69 1.912 4.118 3.058 2.84 2.319 5.81 5.227 8.657 8.744 5.545 7.095 10.537 16.792 12.26 28.056l.497 4.258c.114 1.434.132 2.884.204 4.342.045 1.562-.124 2.919-.186 4.401l-.451 2.27c-.087.377-.137.766-.255 1.134l-.415 1.083c-.46 1.486-1.345 2.801-2.235 4.1l-1.641 1.71c-.583.528-1.266.934-1.898 1.404-2.672 1.66-5.681 2.603-8.682 3.164-6.037 1.028-12.078.955-17.973.942l-17.294-.115-30.665-.242c-8.968.03-16.513-.23-21.675-1.32-2.574-.527-4.54-1.21-5.808-1.817-.653-.259-1.101-.574-1.426-.731l-.482-.261s.168.08.495.24c.332.142.789.434 1.451.662 1.286.555 3.272 1.117 5.837 1.562 2.57.438 5.732.687 9.368.757 3.637.067 7.744-.036 12.232-.106 8.984-.137 19.45-.263 30.673-.306 5.611-.002 11.408-.004 17.301-.004 5.868-.023 11.866-.013 17.64-1.03 2.874-.514 5.668-1.393 8.07-2.86.56-.416 1.177-.77 1.693-1.23l1.45-1.489c.776-1.144 1.578-2.28 1.997-3.627l.386-.969c.107-.326.15-.674.228-1.007l.431-2.022c.07-1.421.253-2.958.213-4.275-.061-1.418-.069-2.836-.171-4.234-.154-1.393-.306-2.78-.455-4.153-.826-5.467-2.338-10.64-4.352-15.299a61.676 61.676 0 0 0-7.163-12.37c-2.743-3.497-5.561-6.463-8.287-8.852-1.373-1.178-2.725-2.209-3.97-3.162-1.308-.865-2.488-1.703-3.597-2.385-1.134-.645-2.145-1.22-3.028-1.72-.886-.495-1.691-.82-2.318-1.133-1.267-.6-1.944-.918-1.944-.918" fill="#FFF"/>
    </g>
</svg>
