<svg width="160" height="153" viewBox="0 0 160 153" xmlns="http://www.w3.org/2000/svg">
    <defs>
        <linearGradient x1="50%" y1="0%" x2="50%" y2="100%" id="95kususi8a">
            <stop stop-color="#ECBCD6" offset="0%"/>
            <stop stop-color="#C8529A" offset="100%"/>
        </linearGradient>
    </defs>
    <g fill="none" fill-rule="evenodd">
        <path d="M89.607 70.667H160C159.743 31.906 128.42.522 89.607 0v70.667z" fill="url(#95kususi8a)"/>
        <path d="M78.762 152.168c-38.572 0-69.836-31.181-69.836-69.643 0-38.46 31.264-69.639 69.836-69.639 38.57 0 69.836 31.18 69.836 69.64s-31.265 69.642-69.836 69.642z" fill-opacity=".2" fill="#F4E6F2"/>
        <g fill="#EBCEE4">
            <path d="M142.552 54.06s.317.775.915 2.227c.3.726.667 1.621 1.1 2.676.218.525.45 1.093.698 1.696.181.63.376 1.297.58 2.003l1.35 4.687c.382 1.732.664 3.633 1.036 5.651.46 2.01.473 4.205.664 6.505.057 1.159.206 2.308.172 3.562-.047 1.2-.096 2.432-.15 3.687-.092 1.256-.009 2.537-.249 3.847a4950.114 4950.114 0 0 1-.862 6.059l-.497 2.043c-.339 1.371-.683 2.764-1.029 4.175-1.771 5.52-3.946 11.334-7.419 16.674l-1.233 2.05c-.416.683-.937 1.3-1.404 1.958-.96 1.294-1.933 2.597-2.91 3.907-2.21 2.404-4.296 4.991-6.854 7.146-2.37 2.364-5.145 4.272-7.824 6.324-2.883 1.747-5.68 3.694-8.793 5.052-2.999 1.599-6.236 2.633-9.397 3.797-1.615.488-3.26.854-4.882 1.283-.815.195-1.62.434-2.44.595l-2.474.372c-1.65.218-3.28.556-4.927.67-1.647.08-3.286.157-4.916.235-1.631.138-3.284-.004-4.85-.048-1.58-.015-3.183-.223-4.768-.396-6.322-.72-12.265-2.352-17.642-4.532-5.366-2.194-10.206-4.856-14.286-7.84-4.088-2.972-7.572-6.053-10.33-9.09-1.428-1.47-2.587-3.008-3.75-4.341l-2.876-3.929c-1.595-2.468-2.802-4.431-3.501-5.842l-1.142-2.121s.429.72 1.23 2.07c.75 1.38 2.061 3.273 3.716 5.68.898 1.15 1.892 2.425 2.978 3.811 1.198 1.287 2.391 2.774 3.853 4.183 2.828 2.912 6.364 5.839 10.429 8.703 4.076 2.862 8.884 5.382 14.184 7.43 5.303 2.032 11.174 3.489 17.3 4.181 1.53.157 3.06.353 4.666.358 1.613.035 3.163.164 4.75.016l4.796-.258c1.604-.122 3.194-.465 4.8-.687l2.41-.376c.797-.16 1.58-.402 2.374-.599 1.575-.429 3.175-.793 4.746-1.275 3.072-1.159 6.215-2.183 9.124-3.754 3.04-1.3 5.77-3.183 8.594-4.861 2.616-1.986 5.34-3.826 7.663-6.116 2.508-2.085 4.554-4.598 6.732-6.927.96-1.275 1.916-2.54 2.865-3.798.46-.637.972-1.237 1.382-1.9l1.216-1.996c3.397-5.207 5.655-10.826 7.494-16.207 1.566-5.501 2.668-10.74 2.897-15.779.075-1.255.15-2.485.22-3.683.052-1.152-.077-2.349-.092-3.476-.117-2.272-.056-4.448-.45-6.447-.306-2.007-.527-3.904-.85-5.632-.433-1.705-.832-3.27-1.19-4.683-.181-.71-.353-1.38-.516-2.011-.221-.615-.429-1.19-.626-1.724-.387-1.072-.718-1.983-.985-2.72l-.82-2.265"/>
            <path d="M21.22 122.079a32.99 32.99 0 0 1-1.66-2.524c-.61-1.021-1.38-2.163-2.061-3.538-1.5-2.68-3.028-6.093-4.515-10.116-1.379-4.063-2.66-8.743-3.3-14.032l-.395-4c-.057-.68-.155-1.362-.18-2.061-.002-.705-.001-1.415 0-2.132 0-1.436.004-2.894.006-4.375.071-1.477.275-2.96.412-4.473.17-3.046.987-6.072 1.573-9.21.379-1.547.913-3.074 1.384-4.633l.734-2.344.962-2.28c2.376-6.198 5.991-12.109 10.287-17.553 1.13-1.318 2.142-2.756 3.384-3.986l3.711-3.733c1.28-1.202 2.686-2.268 4.027-3.41 1.319-1.18 2.793-2.146 4.26-3.126 2.857-2.09 6.052-3.608 9.135-5.277 3.257-1.305 6.428-2.802 9.802-3.646 3.283-1.135 6.701-1.606 10.028-2.268 1.728-.249 3.34-.352 5.002-.536 1.651-.143 3.346-.112 4.998-.175 13.251-.03 25.28 4.056 34.381 9.28 4.538 2.68 8.42 5.58 11.591 8.449 1.591 1.426 2.976 2.878 4.284 4.18 1.211 1.397 2.36 2.65 3.332 3.833.924 1.222 1.75 2.315 2.47 3.263.707.956 1.212 1.84 1.67 2.518.89 1.38 1.365 2.113 1.365 2.113l-1.45-2.054c-.487-.66-1.024-1.518-1.768-2.44l-2.569-3.16c-1.003-1.147-2.182-2.358-3.426-3.706-1.336-1.254-2.752-2.648-4.37-4.01-3.227-2.74-7.147-5.477-11.649-8.05-4.544-2.501-9.756-4.668-15.472-6.204-5.714-1.532-11.944-2.378-18.37-2.356-1.603.073-3.202.043-4.845.195-1.627.189-3.344.316-4.926.558-3.243.671-6.574 1.143-9.77 2.274-3.28.84-6.36 2.325-9.525 3.609-2.993 1.649-6.094 3.144-8.863 5.19-1.433.945-2.877 1.876-4.164 3.018-1.312 1.104-2.69 2.134-3.944 3.296-1.215 1.208-2.425 2.412-3.636 3.614-1.221 1.19-2.211 2.589-3.323 3.866-4.219 5.283-7.786 11.029-10.143 17.067l-.954 2.223-.73 2.284c-.46 1.522-1.013 3.003-1.414 4.51-.627 3.054-1.485 6.005-1.704 8.986-.16 1.477-.392 2.935-.487 4.375l-.086 4.257-.044 2.08c.013.69.1 1.378.146 2.059l.322 4.008c.547 5.15 1.667 9.848 2.907 13.898 1.349 4.025 2.762 7.463 4.173 10.172 1.386 2.717 2.572 4.808 3.483 6.175l1.354 2.118-1.44-2.06z"/>
        </g>
    </g>
</svg>
