<svg width="166" height="40" viewBox="0 0 166 40" xmlns="http://www.w3.org/2000/svg" xmlns:xlink="http://www.w3.org/1999/xlink">
    <defs>
        <path d="M26.509 0a7.73 7.73 0 0 0-7.583 6.223l-.005.026A16.121 16.121 0 0 1 6.25 18.921l-.026.005A7.731 7.731 0 0 0 0 26.508v.01a7.73 7.73 0 0 0 7.73 7.73 7.73 7.73 0 0 0 7.585-6.234 16.125 16.125 0 0 1 12.7-12.699A7.73 7.73 0 0 0 26.518 0h-.011z" id="escaxks14a"/>
        <path d="M0 7.043a7.043 7.043 0 0 0 7.043 7.042A7.042 7.042 0 1 0 7.043 0 7.043 7.043 0 0 0 0 7.043" id="0ykrsg3gkd"/>
        <path d="M0 7.042a7.043 7.043 0 1 0 14.086 0A7.043 7.043 0 0 0 0 7.042" id="3pual6iwzg"/>
        <path id="9zgx4ahu3j" d="M0 40h165.476V0H0z"/>
        <linearGradient x1="51.646%" y1="50%" x2="116.354%" y2="50%" id="m2w30luclb">
            <stop stop-color="#7C2A8E" offset="0%"/>
            <stop stop-color="#E14690" offset="100%"/>
        </linearGradient>
        <linearGradient x1="125.575%" y1="50%" x2="282.909%" y2="50%" id="o6o6p0efce">
            <stop stop-color="#7C2A8E" offset="0%"/>
            <stop stop-color="#E14690" offset="100%"/>
        </linearGradient>
        <linearGradient x1="-17.57%" y1="49.998%" x2="139.763%" y2="49.998%" id="ry6ax3z6hh">
            <stop stop-color="#7C2A8E" offset="0%"/>
            <stop stop-color="#E14690" offset="100%"/>
        </linearGradient>
    </defs>
    <g fill="none" fill-rule="evenodd">
        <g transform="translate(0 4.058)">
            <mask id="nfklc5l43c" fill="#fff">
                <use xlink:href="#escaxks14a"/>
            </mask>
            <path d="M26.509 0a7.73 7.73 0 0 0-7.583 6.223l-.005.026A16.121 16.121 0 0 1 6.25 18.921l-.026.005A7.731 7.731 0 0 0 0 26.508v.01a7.73 7.73 0 0 0 7.73 7.73 7.73 7.73 0 0 0 7.585-6.234 16.125 16.125 0 0 1 12.7-12.699A7.73 7.73 0 0 0 26.518 0h-.011z" fill="url(#m2w30luclb)" mask="url(#nfklc5l43c)"/>
        </g>
        <g transform="translate(0 4.058)">
            <mask id="26qs11tv7f" fill="#fff">
                <use xlink:href="#0ykrsg3gkd"/>
            </mask>
            <path d="M0 7.043a7.043 7.043 0 0 0 7.043 7.042A7.042 7.042 0 1 0 7.043 0 7.043 7.043 0 0 0 0 7.043" fill="url(#o6o6p0efce)" mask="url(#26qs11tv7f)"/>
        </g>
        <g transform="translate(20.163 24.221)">
            <mask id="unta2we0pi" fill="#fff">
                <use xlink:href="#3pual6iwzg"/>
            </mask>
            <path d="M0 7.042a7.043 7.043 0 1 0 14.086 0A7.043 7.043 0 0 0 0 7.042" fill="url(#ry6ax3z6hh)" mask="url(#unta2we0pi)"/>
        </g>
        <g>
            <path d="M64.634 20.79c-1.17-1.202-2.612-1.803-4.327-1.803-1.68 0-3.107.61-4.276 1.829-1.17 1.22-1.756 2.885-1.756 4.993 0 2.111.586 3.775 1.756 4.995 1.17 1.22 2.595 1.829 4.276 1.829 1.682 0 3.116-.618 4.302-1.854 1.188-1.236 1.781-2.91 1.781-5.019s-.585-3.766-1.756-4.97m-6.897-7.985c1.483-.79 3.18-1.186 5.092-1.186 2.275 0 4.335.577 6.181 1.73 1.846 1.155 3.305 2.802 4.376 4.945 1.07 2.142 1.607 4.632 1.607 7.466 0 2.835-.536 5.332-1.607 7.491s-2.53 3.824-4.376 4.994C67.164 39.415 65.104 40 62.83 40c-1.946 0-3.643-.388-5.093-1.161-1.45-.775-2.588-1.805-3.413-3.09v3.856H45.87V3.015h8.454v12.906c.793-1.286 1.93-2.324 3.413-3.116" fill="#FFF"/>
            <mask id="uuttl1cykk" fill="#fff">
                <use xlink:href="#9zgx4ahu3j"/>
            </mask>
            <path d="M79.443 39.604h8.454v-27.59h-8.454v27.59zm.618-31.768c-.939-.873-1.41-1.953-1.41-3.238 0-1.318.471-2.415 1.41-3.288.94-.874 2.15-1.31 3.634-1.31 1.45 0 2.646.436 3.586 1.31.938.873 1.408 1.97 1.408 3.288 0 1.285-.47 2.365-1.408 3.238-.94.875-2.136 1.311-3.586 1.311-1.484 0-2.694-.436-3.634-1.311zM109.406 32.435v7.17h-4.301c-3.066 0-5.457-.75-7.17-2.25-1.715-1.499-2.57-3.947-2.57-7.342V19.036H92v-7.021h3.363V4.573l8.455-.323v7.765h5.538v7.02h-5.538v11.076c0 .824.197 1.418.594 1.78.395.364 1.053.544 1.977.544h3.016zM130.791 30.902c1.137-1.186 1.706-2.884 1.706-5.093 0-2.208-.552-3.906-1.657-5.092-1.105-1.187-2.464-1.78-4.08-1.78-1.648 0-3.015.586-4.103 1.755-1.088 1.17-1.631 2.876-1.631 5.117 0 2.21.535 3.907 1.607 5.093 1.07 1.187 2.414 1.78 4.029 1.78 1.614 0 2.992-.593 4.13-1.78m-11.423 7.368c-2.16-1.154-3.857-2.801-5.093-4.945-1.236-2.142-1.855-4.648-1.855-7.516 0-2.834.626-5.33 1.88-7.49 1.252-2.16 2.967-3.815 5.143-4.97 2.174-1.153 4.614-1.73 7.317-1.73 2.702 0 5.142.577 7.318 1.73 2.175 1.155 3.888 2.81 5.142 4.97 1.253 2.16 1.879 4.656 1.879 7.49 0 2.835-.635 5.333-1.904 7.491-1.269 2.16-3 3.816-5.191 4.97-2.192 1.154-4.64 1.73-7.343 1.73-2.704 0-5.135-.576-7.293-1.73M153.51 32.633h11.966v6.971h-21.41v-6.723l11.47-13.895h-11.372v-6.971h21.064v6.724z" fill="#FFF" mask="url(#uuttl1cykk)"/>
        </g>
    </g>
</svg>
